<svg width="100" height="100" viewBox="0 0 100 100" fill="none" xmlns="http://www.w3.org/2000/svg">
<path fill-rule="evenodd" clip-rule="evenodd" d="M15.5571 61.2991L16.128 61.5714C17.3424 62.165 18.5722 62.7286 19.7631 63.3567C22.073 64.5968 24.0653 66.3537 25.5847 68.4903C26.4687 69.6881 27.0738 71.0684 27.3555 72.5302C27.5269 73.3623 27.4573 74.226 27.1549 75.0199C26.8024 76.1511 26.0873 77.1348 25.12 77.819C24.3294 78.33 23.5007 78.7802 22.6875 79.2531C20.3758 80.5075 17.9907 81.6216 15.5453 82.5896C15.0651 82.7974 14.565 82.9681 14.074 83.1569C13.8835 83.2261 13.6793 83.2492 13.4781 83.2243C13.2769 83.1994 13.0846 83.1271 12.9167 83.0135C11.9737 82.4241 11.1688 81.6384 10.5569 80.7099C10.2582 80.3014 9.99321 79.8667 9.72455 79.4392C9.03565 78.3382 8.29865 77.2681 7.68508 76.129C6.86821 74.616 6.08128 73.1029 5.41598 71.51C4.35676 69.0131 3.38468 66.479 2.4126 63.9439C1.48872 61.4994 0.829339 58.9629 0.445741 56.3778C0.264213 55.2161 0.17345 54.0398 0.112638 52.8671C0.0373035 51.4784 -0.0307698 50.0906 0.0146122 48.7056C0.0631391 47.6863 0.203792 46.6734 0.43485 45.6795C0.535765 45.073 0.844543 44.5205 1.30823 44.1168C1.77192 43.713 2.36164 43.4832 2.97624 43.4667C3.69372 43.447 4.40664 43.5865 5.06382 43.8751C6.69757 44.5368 8.3168 45.2711 9.90971 46.0389C10.9689 46.5463 11.9791 47.1508 13.0039 47.7262C13.5677 48 14.1057 48.3242 14.6113 48.6947C15.9806 49.8529 17.0892 51.2879 17.8643 52.9052C18.2738 53.6753 18.5079 54.5265 18.5498 55.3977C18.5917 56.2689 18.4404 57.1386 18.1066 57.9444C17.6279 59.025 16.9206 59.9889 16.0336 60.7699C15.8793 60.9124 15.7431 61.0903 15.5571 61.2991ZM11.4373 66.164C10.3027 66.0996 9.97688 66.4517 10.1965 67.2532C10.3628 67.9273 10.5841 68.5867 10.8582 69.2246C11.5936 71.0263 12.5341 72.7372 13.661 74.3237C14.3227 75.1941 15.204 75.5835 17.1191 74.3237C18.7347 73.2155 19.616 72.4585 18.1556 70.1204C16.8014 68.0737 13.4205 66.1631 11.4382 66.1631L11.4373 66.164ZM11.7776 57.5414C12.0069 57.423 12.2095 57.259 12.3729 57.0594C12.5364 56.8597 12.6573 56.6288 12.7282 56.3807C12.7991 56.1326 12.8185 55.8727 12.7852 55.6168C12.7519 55.361 12.6666 55.1146 12.5346 54.8929C12.3711 54.5611 12.1594 54.2553 11.9065 53.9853C10.8041 52.8095 9.46953 51.8755 7.98733 51.2424C7.80926 51.1682 7.62403 51.1126 7.43457 51.0763C6.55326 50.9211 6.0958 51.2769 6.02319 52.1655C6.00431 52.3401 6.00431 52.5164 6.02319 52.691C6.15208 53.7729 6.28006 54.8512 6.428 55.9258C6.47118 56.2405 6.59385 56.539 6.78442 56.7931C6.97499 57.0472 7.22718 57.2485 7.51717 57.3781C8.16905 57.7253 8.89108 57.9203 9.62911 57.9486C10.3671 57.9769 11.1011 57.8377 11.7776 57.5414Z" fill="white"/>
<path fill-rule="evenodd" clip-rule="evenodd" d="M48.7757 0.0244912C49.2136 -0.0350958 49.6574 0.0798816 50.0113 0.344611C50.3652 0.60934 50.6008 1.00259 50.6673 1.4395C50.955 2.47603 51.1665 3.59243 51.3634 4.67433C51.7419 6.81546 52.1204 8.95658 52.4717 11.1059C52.7285 12.7324 52.9445 14.367 53.1606 15.9972C53.4328 18.0847 53.7169 20.1587 53.9475 22.2653C54.1417 23.4124 54.1275 24.585 53.9057 25.7271C53.774 26.2658 53.5502 26.7777 53.2441 27.2401C51.8633 29.133 49.7941 30.4076 47.4824 30.789C46.6769 30.9244 45.8504 30.8569 45.0776 30.5928C44.3047 30.3286 43.6099 29.876 43.0558 29.2759C42.4664 28.6778 41.9118 28.0462 41.3948 27.3844C40.4551 26.2019 39.6683 24.9055 39.0531 23.526C38.3724 22.1827 37.6989 20.8285 37.1235 19.4362C36.0906 17.0001 35.1266 14.5032 34.1654 11.999C33.3141 9.75531 32.5163 7.49347 31.6948 5.23889C31.6422 5.08731 31.5887 4.94027 31.5514 4.78507C31.3808 4.09254 31.517 3.60513 32.1641 3.33284C33.3858 2.81458 34.6383 2.35713 35.9018 1.94869C36.2332 1.83055 36.5972 1.84306 36.9197 1.98367C37.2422 2.12428 37.4991 2.38244 37.6381 2.70566C38.0258 3.4496 38.3425 4.22849 38.5838 5.03194C39.594 8.4365 40.5507 11.8392 41.5464 15.2456C41.845 16.5074 42.3105 17.7238 42.9305 18.8626C43.2731 19.4306 43.6847 19.9541 44.1559 20.421C44.4742 20.6987 44.8703 20.8718 45.2904 20.9166C46.4703 21.06 47.1819 20.3112 47.2382 18.9797C47.2676 17.8029 47.1403 16.6275 46.8597 15.4843C46.0126 11.5651 45.1639 7.64353 44.3138 3.7195C44.1849 3.12136 44.0869 2.51233 43.9925 1.90422C43.8944 0.90581 43.9925 0.110717 46.0011 0.0471823C46.9244 -0.00692924 47.8498 -0.0145026 48.7739 0.0244912H48.7757Z" fill="white"/>
<path fill-rule="evenodd" clip-rule="evenodd" d="M39.2511 94.6036C39.7539 94.865 40.1778 95.0574 40.5753 95.2997C42.4644 96.4167 44.3472 97.5404 46.2236 98.6707C46.4899 98.8372 46.7222 99.0528 46.908 99.3061C47.1648 99.6537 47.0214 99.8924 46.583 99.9414C46.5126 99.9452 46.442 99.9452 46.3715 99.9414C43.3317 99.887 40.3115 99.4407 37.3859 98.6135C34.2172 97.6259 31.1192 96.4242 28.1134 95.0166C25.721 93.7736 23.4144 92.3721 21.209 90.8214C20.6368 90.4487 20.1067 90.015 19.6279 89.5281C19.3524 89.2555 19.1346 88.9301 18.9877 88.5714C18.8408 88.2127 18.7678 87.8281 18.7729 87.4405C18.7716 87.1823 18.8416 86.9287 18.9752 86.7077C19.1087 86.4867 19.3007 86.3069 19.5299 86.1879C20.3725 85.6514 21.244 85.1614 22.1403 84.7203C24.7661 83.5857 27.2621 82.1934 29.9904 81.3157C30.5241 81.1415 31.0615 80.9862 31.6024 80.8319C32.3413 80.6504 33.1188 80.7072 33.8234 80.9944C35.4363 81.5688 36.8397 82.6137 37.8524 83.9942C38.497 84.9416 38.8266 86.0681 38.7945 87.2136C38.8399 87.9705 38.7945 88.7566 38.7945 89.6007C38.9887 89.5759 39.1805 89.5355 39.3682 89.4799C41.2162 88.748 43.2737 88.748 45.1217 89.4799C45.9861 89.8502 46.7947 90.3389 47.5242 90.9322C48.6134 91.7345 49.7407 92.487 50.838 93.2739C51.4924 93.7431 52.1087 94.2578 52.7631 94.7261C54.3216 95.8607 55.8918 96.9771 57.4466 98.1307C57.6155 98.2707 57.7458 98.4516 57.8251 98.6562C57.9912 99.061 57.8704 99.3142 57.4466 99.3905C56.4972 99.5566 55.555 99.6891 54.583 99.8107C53.993 99.8824 53.3912 99.8861 52.8013 99.9659C52.3119 100.036 51.813 99.9966 51.3411 99.8493C50.8691 99.702 50.4361 99.4509 50.0738 99.1146C49.0754 98.2332 48.1178 97.2993 47.1421 96.3916C46.156 95.4415 45.0244 94.655 43.7902 94.0617C43.2283 93.8041 42.6181 93.6686 42 93.664C41.3818 93.6595 40.7698 93.7861 40.2041 94.0354C39.8765 94.2026 39.5595 94.3896 39.2547 94.5954L39.2511 94.6036ZM35.3482 88.6903C35.3256 88.4634 35.3183 88.2174 35.2729 87.9787C35.1618 87.5334 34.9422 87.1224 34.6337 86.7825C34.3252 86.4427 33.9374 86.1844 33.5048 86.0309C32.8032 85.6904 32.0107 85.5846 31.2443 85.7291C30.478 85.8736 29.7784 86.2607 29.2489 86.8333C29.1258 86.9427 29.0272 87.077 28.9597 87.2272C28.8923 87.3775 28.8574 87.5403 28.8574 87.7051C28.8574 87.8698 28.8923 88.0326 28.9597 88.1829C29.0272 88.3332 29.1258 88.4674 29.2489 88.5768C29.6966 89.0393 30.1868 89.4586 30.7129 89.8294C31.6396 90.4911 32.5818 91.131 33.5538 91.7209C34.1293 92.0685 34.4506 91.9324 34.7156 91.3125C35.069 90.4805 35.2837 89.5963 35.351 88.6948L35.3482 88.6903Z" fill="white"/>
<path fill-rule="evenodd" clip-rule="evenodd" d="M41.3013 64.7279C41.474 64.8539 41.6171 65.016 41.7207 65.203C41.8243 65.39 41.8858 65.5974 41.9009 65.8106C41.916 66.0238 41.8844 66.2378 41.8083 66.4376C41.7321 66.6373 41.6133 66.818 41.4601 66.9671C40.8522 67.8724 40.0528 68.6331 39.1184 69.1954C38.5357 69.5285 38.434 69.5248 37.9003 69.12C36.4935 68.0572 31.2192 62.2047 31.2192 62.2047L33.9467 68.3676C34.4268 69.4386 34.9187 70.5051 35.3726 71.587C35.476 71.7351 35.5449 71.9044 35.5743 72.0826C35.6037 72.2608 35.5928 72.4433 35.5424 72.6167C35.4919 72.7902 35.4033 72.9501 35.283 73.0848C35.1627 73.2194 35.0137 73.3254 34.847 73.395C33.9884 73.9659 33.0989 74.4842 32.1985 74.9952C31.7293 75.2675 31.5251 75.2375 31.2074 74.791C30.7272 74.1668 30.3077 73.4982 29.9549 72.7941C28.7344 70.1711 27.5414 67.5368 26.376 64.8913C25.4602 62.8037 24.6052 60.6998 23.7275 58.6077C23.7275 58.6077 22.4187 55.5317 21.2197 52.5129C20.0207 49.4941 20.5844 48.4612 21.492 48.3142C22.9297 48.0909 24.3629 47.8603 25.7933 47.5953C26.8643 47.397 27.9553 47.3285 29.0427 47.3911C30.3188 47.4667 31.5384 47.9434 32.5275 48.7531C33.5167 49.5629 34.2249 50.6643 34.5511 51.9003C34.8954 53.8039 34.6499 55.7673 33.8477 57.5276C33.8477 57.5276 40.8166 64.2224 41.3013 64.7279ZM29.7298 53.7319C29.7298 52.434 29.2759 51.8404 28.1868 51.6443C27.8932 51.5899 27.5964 51.5544 27.2982 51.5381C26.6175 51.4964 26.4359 51.6815 26.6628 52.3405C27.0413 53.4296 27.4797 54.5007 27.9263 55.5635C28.1986 56.2106 28.6261 56.2442 29.0608 55.677C29.4726 55.1097 29.7055 54.4324 29.7298 53.7319Z" fill="white"/>
<path fill-rule="evenodd" clip-rule="evenodd" d="M52.7032 68.6823L57.3449 73.6453L59.2818 72.1132C59.6603 71.8291 59.9934 71.5377 60.3601 71.2618C60.7267 70.9859 60.9654 70.955 61.2831 71.3036C61.9185 71.9997 62.513 72.7331 63.1293 73.4483C63.4397 73.8041 63.7728 74.1372 64.0714 74.5003C64.5252 75.0449 64.537 75.3553 64.0714 75.8926C63.3453 76.7213 62.5883 77.5263 61.8023 78.3859C62.1163 78.6509 66.228 82.7253 67.6393 84.1213L72.527 88.9708L74.7135 91.1491C74.8545 91.2817 74.9813 91.4287 75.092 91.5875C75.1809 91.6878 75.247 91.8063 75.2856 91.9346C75.3243 92.063 75.3346 92.1982 75.3159 92.331C75.2972 92.4637 75.2498 92.5908 75.1772 92.7035C75.1045 92.8161 75.0082 92.9117 74.895 92.9835C74.0364 93.5544 73.1287 94.0545 72.2465 94.5646C72.0852 94.6409 71.9049 94.6676 71.7285 94.6412C71.552 94.6149 71.3873 94.5367 71.2554 94.4166C70.8248 94.1164 70.4188 93.7826 70.0409 93.4182C68.8719 92.2837 67.7374 91.1065 66.5647 89.9755C65.5436 88.9917 64.4689 88.0577 63.4433 87.0774C62.6074 86.2796 61.8096 85.4355 60.9845 84.6268C60.046 83.7074 54.8216 78.3922 53.6226 77.1361C52.9455 76.4245 52.3247 75.6648 51.6522 74.9496C50.4568 73.6707 49.2269 72.4191 48.0352 71.1329C47.4298 70.4785 46.9007 69.7715 46.3107 69.0826C46.0785 68.8481 45.866 68.5949 45.6753 68.3256C45.5901 68.212 45.5281 68.0826 45.4929 67.9449C45.4578 67.8073 45.4502 67.664 45.4706 67.5234C45.4911 67.3828 45.5391 67.2476 45.6119 67.1256C45.6847 67.0036 45.7809 66.8972 45.895 66.8126C47.2946 65.678 48.725 64.5843 50.1509 63.4833C50.9306 62.8816 51.7357 62.3179 52.5035 61.7053C52.6216 61.5736 52.7686 61.4713 52.933 61.4063C53.0974 61.3414 53.2747 61.3156 53.4509 61.331C53.627 61.3464 53.7971 61.4026 53.9477 61.4951C54.0984 61.5877 54.2254 61.714 54.3188 61.8641C54.9124 62.6891 55.476 63.536 55.9943 64.4055C56.5126 65.275 56.3728 65.6617 55.6158 66.297C54.6401 67.0858 53.6862 67.8727 52.7032 68.6823Z" fill="white"/>
<path fill-rule="evenodd" clip-rule="evenodd" d="M42.9197 76.9742L48.5035 82.361C48.6098 82.3005 48.7123 82.2336 48.8103 82.1605C49.658 81.5024 50.4976 80.8362 51.3408 80.1745C52.0333 79.6299 52.3211 79.6372 52.9183 80.258C53.7503 81.1179 54.5687 81.9892 55.3735 82.872C55.7746 83.3104 55.7892 83.5455 55.3471 83.9503C54.7417 84.5031 54.0764 84.9905 53.4556 85.5124C53.1452 85.7656 52.8466 86.0343 52.4872 86.3411L60.4317 92.9577C61.3094 92.4921 62.1871 92.0501 63.0385 91.5618C63.1723 91.4619 63.3313 91.4011 63.4977 91.3864C63.6641 91.3716 63.8313 91.4034 63.9806 91.4783C64.4711 91.7448 64.938 92.0524 65.3766 92.3977C66.3831 93.2146 67.3588 94.0814 68.3464 94.9328C68.4417 95.0109 68.5326 95.0942 68.6186 95.1824C68.7024 95.2425 68.7697 95.3227 68.8142 95.4157C68.8588 95.5086 68.8792 95.6113 68.8736 95.7142C68.868 95.8172 68.8365 95.917 68.7821 96.0046C68.7277 96.0922 68.6522 96.1646 68.5624 96.2153C68.3514 96.4004 68.1076 96.5441 67.8435 96.6391C65.7178 97.2935 63.584 97.9216 61.4537 98.576C61.195 98.6645 60.919 98.6907 60.6483 98.6525C60.3775 98.6143 60.1196 98.5129 59.8953 98.3564C59.2064 97.8762 58.5448 97.3498 57.8985 96.8134C57.0816 96.1517 56.2865 95.4701 55.5005 94.7857C54.4831 93.8971 53.4837 92.9813 52.4745 92.1C51.4652 91.2187 50.4277 90.3973 49.4103 89.5387C48.7519 88.9814 48.0999 88.4177 47.4543 87.8477C46.3533 86.8684 45.2642 85.8763 44.1559 84.9042C43.7357 84.5258 43.2673 84.2235 42.8507 83.8523C41.1979 82.381 39.5751 80.8825 37.9104 79.4257C37.3826 79.0285 36.9148 78.5571 36.5218 78.0261C36.4228 77.9186 36.3463 77.7923 36.2968 77.6548C36.2473 77.5173 36.2258 77.3712 36.2336 77.2253C36.2414 77.0793 36.2783 76.9364 36.3421 76.8049C36.4059 76.6734 36.4954 76.556 36.6053 76.4596C38.2662 74.6779 39.9454 72.9152 41.6182 71.1408C41.7545 70.9861 41.8809 70.8231 41.9966 70.6525C42.1008 70.4658 42.2474 70.3062 42.4246 70.1867C42.6018 70.0672 42.8047 69.9911 43.0169 69.9646C43.229 69.9381 43.4443 69.9619 43.6455 70.0341C43.8467 70.1063 44.0281 70.2249 44.175 70.3802C44.9028 71.0999 45.5924 71.8573 46.2408 72.6493C46.3176 72.7457 46.3744 72.8566 46.4077 72.9753C46.441 73.094 46.4502 73.2182 46.4347 73.3406C46.4193 73.4629 46.3794 73.5809 46.3176 73.6876C46.2557 73.7943 46.1731 73.8875 46.0747 73.9617C45.0155 74.9356 44.0016 75.9422 42.9197 76.9742Z" fill="white"/>
<path fill-rule="evenodd" clip-rule="evenodd" d="M68.6439 58.5746C68.0194 57.8176 67.4222 57.008 66.8431 56.2066C66.6601 55.929 66.52 55.6255 66.4274 55.3062C66.3852 55.2264 66.3616 55.1381 66.3584 55.0478C66.3552 54.9576 66.3724 54.8678 66.4088 54.7852C66.4453 54.7026 66.4999 54.6294 66.5687 54.5709C66.6374 54.5124 66.7185 54.4702 66.8059 54.4476C68.0394 53.9674 69.291 53.5245 70.5363 53.0743L73.5025 52.0033C73.5515 52.0033 73.5933 51.9579 73.6459 51.9352C74.864 51.4587 75.2197 51.583 75.8551 52.7376C76.2336 53.4265 76.6121 54.1108 76.967 54.8179C77.3218 55.5249 77.1748 55.8998 76.4414 56.2401L73.7067 57.5263L76.3552 60.7566L78.8058 59.2435C78.9538 59.1528 79.0936 59.0466 79.2488 58.964C79.3887 58.8677 79.5596 58.8276 79.7277 58.8514C79.8958 58.8753 80.0488 58.9615 80.1564 59.0929C80.966 60.0686 81.753 61.0561 82.5362 62.0472C82.5877 62.1032 82.6276 62.1688 82.6536 62.2403C82.6795 62.3117 82.6911 62.3877 82.6875 62.4636C82.684 62.5396 82.6654 62.6141 82.6329 62.6828C82.6004 62.7515 82.5546 62.8132 82.4981 62.8641C82.2648 63.1022 82.0116 63.3199 81.7411 63.5149C81.1058 63.9687 80.4623 64.4116 79.7743 64.8881L85.9027 71.297C86.519 70.688 87.1471 70.1053 87.737 69.4817C87.826 69.3656 87.9405 69.2715 88.0717 69.2067C88.2029 69.142 88.3472 69.1083 88.4935 69.1083C88.6398 69.1083 88.7842 69.142 88.9154 69.2067C89.0466 69.2715 89.1611 69.3656 89.2501 69.4817C90.3846 70.6698 91.5192 71.8797 92.6356 73.0941C92.7842 73.202 92.909 73.3394 93.0024 73.4975C93.0958 73.6557 93.1557 73.8314 93.1785 74.0136C93.2012 74.1959 93.1862 74.3809 93.1345 74.5572C93.0828 74.7334 92.9955 74.8972 92.8779 75.0383C92.1935 76.1728 91.4257 77.2738 90.6687 78.3711C90.3129 78.8894 89.889 79.3623 89.5341 79.8842C89.2355 80.2926 88.9814 80.7355 88.6755 81.1322C88.6242 81.2254 88.5522 81.3056 88.465 81.3667C88.3779 81.4278 88.2779 81.4682 88.1728 81.4846C88.0676 81.5011 87.9601 81.4933 87.8585 81.4618C87.7568 81.4303 87.6637 81.3759 87.5864 81.3028C87.3234 81.1277 87.0832 80.9207 86.8711 80.6865L68.6439 58.5746Z" fill="white"/>
<path fill-rule="evenodd" clip-rule="evenodd" d="M67.1991 32.5624C66.7979 31.2726 66.374 29.9938 66.0074 28.6958C65.814 28.0296 65.9583 27.7882 66.6282 27.6067C67.7255 27.3189 68.8337 27.0693 69.9456 26.8497C70.5546 26.7244 70.8877 26.9668 71.0801 27.584C71.5113 28.9908 71.9234 30.4058 72.3627 31.81C72.6349 32.6949 72.9526 33.5653 73.2594 34.4584L75.4305 33.7695C75.3397 33.3266 75.2644 32.9037 75.1736 32.4798C74.7951 30.7852 74.4357 29.0752 74.0844 27.3916C73.8875 26.4458 74.0844 26.1354 75.0493 25.9693C76.1384 25.7878 77.2276 25.6289 78.3249 25.4701C78.4149 25.4436 78.5096 25.4369 78.6024 25.4504C78.6952 25.4639 78.784 25.4973 78.8627 25.5483C78.9414 25.5994 79.0082 25.6668 79.0584 25.7461C79.1086 25.8253 79.1411 25.9144 79.1536 26.0074C79.3379 26.6108 79.4918 27.223 79.6147 27.8417C80.3526 31.2463 81.0787 34.649 81.8166 38.0554C82.2142 39.8861 82.6417 41.7132 83.0347 43.5485C83.0998 43.7062 83.1272 43.8768 83.115 44.047C83.1028 44.2172 83.0511 44.3821 82.9641 44.5289C82.8771 44.6757 82.7572 44.8002 82.6138 44.8926C82.4704 44.9851 82.3075 45.0429 82.1379 45.0615C81.381 45.2848 80.6249 45.4736 79.8688 45.6596C79.2217 45.8185 78.9875 45.6596 78.7797 45.0316C78.1921 43.1782 77.6094 41.3232 77.0316 39.4668C77.0016 39.376 76.9598 39.278 76.9063 39.1373L74.8187 39.8108C75.2725 41.165 75.7118 42.4593 76.1312 43.7872C76.3352 44.4081 76.5058 45.0395 76.6422 45.6787C76.6884 45.7952 76.7091 45.9202 76.7028 46.0454C76.6964 46.1706 76.6633 46.2929 76.6055 46.4041C76.5478 46.5154 76.4667 46.6129 76.368 46.69C76.2692 46.7672 76.155 46.8222 76.0331 46.8514C75.2762 47.1618 74.4902 47.4186 73.7178 47.7136C73.1541 47.8843 72.6014 47.661 71.9243 46.0073C71.2472 44.3535 67.9606 34.9985 67.1991 32.5624Z" fill="white"/>
<path fill-rule="evenodd" clip-rule="evenodd" d="M79.101 81.0422C79.7518 80.475 80.349 79.9603 80.9399 79.4384C81.0826 79.2705 81.2623 79.138 81.4649 79.0513C81.6675 78.9647 81.8875 78.9263 82.1075 78.9391C82.3274 78.952 82.5414 79.0157 82.7326 79.1254C82.9237 79.235 83.0868 79.3875 83.209 79.571C84.2074 80.6792 85.1985 81.7919 86.1824 82.9111C86.2819 83.0067 86.3591 83.1231 86.4085 83.252C86.4578 83.3809 86.4782 83.519 86.4681 83.6567C86.4579 83.7943 86.4175 83.928 86.3498 84.0483C86.2821 84.1686 86.1887 84.2724 86.0762 84.3524C84.6385 85.6612 83.2053 86.9737 81.7449 88.2607C80.8373 89.063 80.4171 89.0776 79.5203 88.2416C78.8732 87.6362 78.3132 86.9292 77.7232 86.263C76.4216 84.7917 75.1128 83.324 73.8267 81.8364C73.2059 81.1212 72.6468 80.357 72.0332 79.6381C70.8796 78.2948 69.6951 76.9896 68.5379 75.6354C66.8279 73.6428 65.1242 71.6415 63.427 69.6314C61.8204 67.7326 60.2169 65.8299 58.6165 63.9232C57.8601 63.0277 57.1122 62.1285 56.3728 61.2257C55.5296 60.1928 55.5704 59.8643 56.6868 59.1527C57.4438 58.668 58.2489 58.226 59.0548 57.8057C59.1642 57.7198 59.2903 57.6579 59.4252 57.624C59.56 57.59 59.7004 57.5848 59.8374 57.6087C59.9743 57.6326 60.1047 57.685 60.2201 57.7626C60.3355 57.8402 60.4333 57.9411 60.5071 58.059C61.4147 59.1218 62.2733 60.2228 63.1556 61.3011C63.8254 62.1179 64.517 62.9049 65.1869 63.7181C65.9665 64.6675 66.7298 65.6323 67.5059 66.589C69.473 69.0329 71.4396 71.4793 73.4055 73.9281C74.6445 75.4466 78.8823 80.7055 79.101 81.0422Z" fill="white"/>
<path fill-rule="evenodd" clip-rule="evenodd" d="M57.0389 14.9145C57.6633 14.7974 57.9774 14.9445 58.1734 15.5499C58.4339 16.2403 58.86 16.8562 59.4142 17.3434C59.9778 17.8807 60.5224 17.9941 60.9726 17.6992C61.2084 17.5119 61.3777 17.2536 61.4553 16.9627C61.533 16.6717 61.5149 16.3635 61.4037 16.0836C61.1724 15.4147 60.7043 14.8536 60.0877 14.5061C59.7126 14.2787 59.3264 14.0703 58.9304 13.8816C57.5904 13.2646 56.3669 12.4211 55.3135 11.3883C54.7236 10.7577 54.3295 9.96948 54.1789 9.11924C53.7652 7.3104 53.8767 5.42103 54.5002 3.67339C54.6711 3.23186 54.8813 2.80659 55.1283 2.40269C55.5042 1.75041 56.0747 1.23199 56.7599 0.92C57.4451 0.60801 58.2106 0.518062 58.9495 0.662747C60.0788 0.785743 61.1952 1.00714 62.286 1.32442C62.6313 1.40586 62.9555 1.55968 63.237 1.7757C63.5185 1.99172 63.751 2.26502 63.9191 2.57756C64.0871 2.89009 64.187 3.23472 64.212 3.5887C64.2369 3.94267 64.1865 4.29791 64.064 4.63095C63.9528 5.27114 63.6492 5.86225 63.1936 6.32552C63.0308 6.4737 62.83 6.57372 62.6136 6.61443C62.3972 6.65514 62.1738 6.63493 61.9683 6.55606C61.5427 6.44925 61.1616 6.21106 60.8791 5.87533C60.6878 5.6459 60.4539 5.45572 60.1902 5.31531C59.9785 5.16834 59.7245 5.09471 59.467 5.10569C59.2095 5.11668 58.9627 5.21166 58.7643 5.37613C58.5391 5.53511 58.3697 5.76094 58.2801 6.02161C58.1905 6.28227 58.1853 6.56453 58.2651 6.82835C58.4127 7.31351 58.6632 7.76116 58.9994 8.1408C59.5205 8.65873 60.1052 9.10857 60.7393 9.47957C61.7042 10.0468 62.6608 10.6141 63.5839 11.2576C64.6445 12.039 65.5293 13.0344 66.181 14.1794C66.8327 15.3243 67.2367 16.5933 67.3669 17.9043C67.5905 19.0649 67.5595 20.2603 67.2762 21.4078C67.1632 21.9597 66.9213 22.4771 66.5701 22.9177C66.219 23.3583 65.7686 23.7096 65.2558 23.9428C64.14 24.5437 62.9079 24.8973 61.6433 24.9793C59.0856 24.9793 56.2674 22.2292 55.2953 18.7339C54.935 17.1047 55.0375 15.4028 57.0389 14.9145Z" fill="white"/>
<path fill-rule="evenodd" clip-rule="evenodd" d="M71.3987 22.5447C72.6921 22.3178 73.99 22.1018 75.2843 21.8713C76.7637 21.6099 78.2468 21.3566 79.7181 21.0544C80.4025 20.9146 80.5159 20.7213 80.4978 20.0215C80.4555 19.1072 80.2424 18.2089 79.8697 17.373C79.8051 17.1781 79.6733 17.0125 79.4979 16.9058C79.3225 16.7991 79.1149 16.7581 78.9121 16.7903C78.1551 16.8475 77.3691 16.9038 76.6004 16.9528C75.6246 17.0208 74.648 17.078 73.6233 17.1461C73.5815 16.6732 73.5434 16.2684 73.5026 15.8337C74.3576 15.762 75.1255 15.7129 75.8933 15.6367C76.7674 15.5459 77.6369 15.4325 78.5073 15.3417C78.9085 15.3 79.0065 15.0504 78.9611 14.7136C78.9157 14.3672 78.8512 14.0236 78.7678 13.6844C78.712 13.3476 78.5318 13.0442 78.2628 12.834C77.9939 12.6239 77.6558 12.5225 77.3156 12.5498L73.3628 12.4854C73.2076 12.4854 73.056 12.4663 72.8972 12.459C72.7765 11.8237 72.6585 11.2337 72.5187 10.5675C73.1659 10.7109 73.7213 10.8516 74.285 10.946C75.2652 11.1203 76.2446 11.2982 77.2321 11.4225C77.6632 11.4797 77.7957 11.3318 77.8257 10.8852C77.8556 10.4386 77.8257 10.0456 77.8257 9.62176C77.8394 9.22488 77.7344 8.83293 77.5243 8.496C77.3141 8.15907 77.0082 7.89246 76.6457 7.73024C75.6246 7.24193 74.6063 6.73183 73.597 6.2172C72.6585 5.74069 71.7436 5.22606 70.8015 4.76498C69.9846 4.3638 69.1677 3.96262 68.3163 3.63043C68.1559 3.55335 67.9791 3.51674 67.8013 3.52381C67.6235 3.53087 67.4502 3.58139 67.2964 3.67094C67.1426 3.76049 67.0132 3.88635 66.9193 4.03752C66.8254 4.18868 66.77 4.36054 66.7579 4.53807C66.6838 5.04058 66.6939 5.55192 66.7879 6.0511C66.7879 6.0511 68.7211 16.9237 70.1243 21.3948C70.4266 22.2843 70.6825 22.67 71.3987 22.5447Z" fill="white"/>
<path fill-rule="evenodd" clip-rule="evenodd" d="M53.5274 32.1802C55.604 31.4232 57.6544 30.6063 59.7238 29.8385C60.7567 29.46 61.8114 29.1196 62.8597 28.772C62.9743 28.7118 63.1007 28.6772 63.23 28.6706C63.3593 28.664 63.4885 28.6856 63.6086 28.7338C63.7288 28.7821 63.837 28.8558 63.9259 28.95C64.0147 29.0442 64.082 29.1566 64.1232 29.2794C64.6214 30.3835 64.9418 31.5595 65.0725 32.7638C65.1115 32.9898 65.0679 33.2223 64.9498 33.4189C64.8317 33.6155 64.6469 33.7631 64.429 33.8348C63.7138 34.1525 63.0331 34.5419 62.3415 34.894C62.3447 34.9615 62.3535 35.0286 62.3678 35.0946C63.3662 37.5235 64.3537 39.9559 65.363 42.3766C66.0664 44.0793 66.7971 45.7812 67.5195 47.4594C67.663 47.7998 67.8408 48.1256 67.9625 48.4696C68.1966 49.1394 68.0723 49.4762 67.4324 49.7403C66.4449 50.1415 65.4356 50.4973 64.4327 50.8749C64.3571 50.9128 64.2747 50.9352 64.1903 50.9409C64.106 50.9465 64.0213 50.9353 63.9413 50.9078C63.8614 50.8804 63.7877 50.8372 63.7246 50.7809C63.6615 50.7246 63.6104 50.6562 63.574 50.5799C63.3807 50.2014 63.23 49.8229 63.0712 49.4453C62.9124 49.0677 62.7571 48.6657 62.5947 48.2763C61.9012 46.6268 61.2078 44.98 60.5144 43.336C59.7374 41.4923 58.9569 39.6537 58.1727 37.8203C58.0628 37.5634 57.9231 37.3247 57.7942 37.0633C56.9201 37.4908 56.1141 37.911 55.29 38.285C54.6546 38.5763 54.0338 38.7542 53.1416 37.3546C52.496 36.4337 51.9253 35.4625 51.4352 34.4502C51.163 33.7613 51.8219 32.8754 53.5274 32.1802Z" fill="white"/>
<path fill-rule="evenodd" clip-rule="evenodd" d="M94.8912 69.4089C95.4281 69.0895 95.8701 68.6326 96.1713 68.0853C96.4726 67.538 96.6222 66.9202 96.6049 66.2957V65.9817C96.3912 63.9891 95.7965 62.0561 94.8531 60.288C94.7916 60.1391 94.6772 60.0182 94.532 59.9483C94.3868 59.8785 94.2209 59.8647 94.0662 59.9095C93.4665 60.0347 92.8742 60.1925 92.2918 60.3824C91.5656 60.6248 91.5048 60.7609 91.641 61.5397C91.6812 61.7299 91.6635 61.9279 91.59 62.108C91.5166 62.2881 91.3908 62.442 91.2289 62.5499C91.0888 62.6604 90.9155 62.7206 90.737 62.7206C90.5585 62.7206 90.3852 62.6604 90.245 62.5499C89.9289 62.3597 89.6367 62.1324 89.3746 61.8728C88.3054 60.7152 87.2498 59.5413 86.2078 58.3511C85.5225 57.6609 85.0975 56.7545 85.0052 55.7861C84.9562 54.8367 85.3837 54.5418 86.2578 54.9311C86.4266 55.0272 86.6228 55.0637 86.8148 55.0349C87.0069 55.0061 87.1837 54.9136 87.317 54.7723C87.7519 54.3498 88.0852 53.834 88.2917 53.2639C88.4981 52.6938 88.5723 52.0842 88.5087 51.4812C88.2499 50.5956 87.6743 49.8362 86.8916 49.3477C86.1089 48.8593 85.1738 48.676 84.2646 48.8327C83.359 49.0279 82.4668 49.2808 81.5934 49.5897C80.8524 49.8423 80.2259 50.351 79.8266 51.0244C79.4272 51.6978 79.2813 52.4915 79.4151 53.2629C79.7935 55.5592 81.7114 58.726 85.4681 63.0082C89.2248 67.2905 92.564 70.3619 94.8912 69.4089Z" fill="white"/>
<path fill-rule="evenodd" clip-rule="evenodd" d="M86.9431 31.9536L89.9691 31.6323C90.2641 31.6023 90.5627 31.5715 90.8577 31.5606C91.4595 31.5306 91.6147 31.6214 91.7318 32.215C91.8679 32.8848 91.9705 33.5655 92.0531 34.2426C92.1175 34.7727 91.8715 35.0486 91.2553 35.143C90.4384 35.2683 89.6215 35.3663 88.8046 35.4798L87.5675 35.654L88.1012 38.711L91.5666 38.1664L91.6691 38.14C92.8037 37.9395 93.0615 38.14 93.2502 39.2746C93.3601 39.9481 93.4999 40.6179 93.6287 41.2868C93.7576 41.9558 93.557 42.2852 92.8718 42.4214C90.7533 42.8825 88.6349 43.3445 86.5083 43.7828C85.6651 43.9571 85.2603 43.7828 84.9726 42.9887C84.6334 41.9789 84.3606 40.948 84.1557 39.9027C83.229 35.5714 82.3286 31.232 81.4246 26.8971C81.369 26.639 81.3323 26.3772 81.3148 26.1138C81.289 25.9818 81.2928 25.8458 81.326 25.7155C81.3592 25.5852 81.4209 25.4638 81.5067 25.3603C81.5925 25.2568 81.7003 25.1736 81.8222 25.1168C81.9441 25.06 82.077 25.031 82.2115 25.0319C83.6374 24.8431 85.0679 24.6688 86.4974 24.4946C87.454 24.3775 88.4116 24.2604 89.3683 24.1506C89.9809 24.0825 90.1479 24.1851 90.3104 24.7977C90.511 25.5547 90.6889 26.3108 90.855 27.045C90.9684 27.5597 90.7942 27.802 90.2686 27.8774C89.047 28.0208 87.8244 28.1496 86.6027 28.2858L86.3603 28.3348L86.9431 31.9536Z" fill="white"/>
<path fill-rule="evenodd" clip-rule="evenodd" d="M90.983 50.8878C90.5364 51.0394 90.1316 51.1601 89.7459 51.3153C89.6465 51.3737 89.5283 51.3914 89.4161 51.3647C89.304 51.338 89.2065 51.2689 89.1441 51.1719C88.927 50.877 88.7288 50.5687 88.5505 50.2489C88.3009 49.8059 88.0776 49.3485 87.8543 48.8947C87.5594 48.2856 87.6728 48.0623 88.3236 47.8808C90.3476 47.3244 92.3717 46.7644 94.3993 46.2162C94.9748 46.061 95.2734 46.2162 95.4477 46.7608C95.618 47.2972 95.7583 47.8426 95.8679 48.3945C95.9777 48.97 95.8679 49.1207 95.2888 49.3176L94.4828 49.6053C94.5618 49.8096 97.184 54.7317 98.4438 56.9972C98.6126 57.2531 98.7269 57.541 98.7796 57.843C98.8324 58.1449 98.8225 58.4545 98.7506 58.7525C98.5845 59.3616 98.471 59.9779 98.3076 60.5869C98.2554 60.7723 98.1651 60.9447 98.0426 61.0933C98.0055 61.1588 97.9526 61.2139 97.8889 61.2538C97.8251 61.2937 97.7524 61.3172 97.6774 61.322C97.6023 61.3269 97.5272 61.313 97.4588 61.2817C97.3904 61.2503 97.3309 61.2024 97.2856 61.1424C97.1584 61.023 97.0465 60.8882 96.9525 60.7412C96.1729 59.5113 95.386 58.2905 94.6408 57.0416C93.96 55.9071 93.3474 54.7226 92.6739 53.5799C92.133 52.6768 91.5539 51.7991 90.983 50.8878Z" fill="white"/>
<path fill-rule="evenodd" clip-rule="evenodd" d="M84.6847 15.8264C84.9854 15.8797 85.2805 15.9608 85.5661 16.0688C86.688 16.5831 87.6586 17.3777 88.3843 18.376C88.4992 18.5113 88.5775 18.6738 88.6116 18.8481C88.6456 19.0223 88.6344 19.2023 88.5789 19.371C88.5234 19.5396 88.4256 19.6911 88.2947 19.8111C88.1638 19.9311 88.0043 20.0154 87.8315 20.056C87.4063 20.1654 86.9718 20.235 86.5336 20.2639C85.6986 20.3474 84.8587 20.4167 84.014 20.4717C83.7686 20.5117 83.5169 20.4764 83.292 20.3704C83.0671 20.2644 82.8796 20.0928 82.7542 19.8781C82.274 19.0957 82.026 18.1929 82.039 17.275C82.0353 17.1086 82.0775 16.9443 82.1609 16.8003C82.2443 16.6562 82.3657 16.5378 82.5119 16.4581C83.1645 16.0523 83.9162 15.8338 84.6847 15.8264Z" fill="white"/>
<path fill-rule="evenodd" clip-rule="evenodd" d="M94.4863 38.9261C94.4841 38.6823 94.5069 38.439 94.5543 38.1999C94.6017 38.0485 94.6808 37.909 94.7864 37.7906C94.8919 37.6721 95.0215 37.5776 95.1665 37.5132C95.3115 37.4487 95.4685 37.416 95.6271 37.417C95.7858 37.4181 95.9423 37.4529 96.0865 37.5192C96.2035 37.5537 96.317 37.61 96.4305 37.6517C98.1105 38.2871 98.5262 39.0586 98.3973 41.1325C98.3782 41.2482 98.3306 41.3573 98.2586 41.4499C98.1866 41.5425 98.0926 41.6156 97.9852 41.6626C97.2709 41.8256 96.547 41.9432 95.8178 42.0148C95.6398 42.0269 95.4633 41.9758 95.3194 41.8706C95.1754 41.7653 95.0732 41.6126 95.0308 41.4393C94.7055 40.6412 94.5212 39.7927 94.4863 38.9315V38.9261Z" fill="white"/>
<path fill-rule="evenodd" clip-rule="evenodd" d="M99.5629 50.3913C99.4791 50.1668 99.3143 49.9819 99.1009 49.873C98.9047 49.7902 98.6917 49.7553 98.4793 49.771C98.267 49.7868 98.0614 49.8528 97.8796 49.9636C97.6978 50.0744 97.5449 50.2268 97.4336 50.4084C97.3223 50.5899 97.2557 50.7952 97.2393 51.0076C97.1867 51.4273 97.2473 51.8535 97.4149 52.242C97.5825 52.6304 97.8509 52.967 98.1924 53.2167C98.7787 53.6633 99.1308 53.5952 99.3723 52.8727C99.659 52.078 99.7249 51.2204 99.5629 50.3913Z" fill="white"/>
<path fill-rule="evenodd" clip-rule="evenodd" d="M47.8619 58.1208C47.6386 57.568 47.4416 56.9862 47.2601 56.4371C47.0295 55.711 46.5639 55.495 45.9059 55.8544C45.1489 56.2628 44.3929 56.694 43.5905 57.1596C43.0459 56.025 42.5195 54.935 42.0203 53.8385L41.8769 53.5091C42.4977 53.1878 43.8628 52.4725 44.5027 52.1204C45.3504 51.6593 44.8394 50.1571 44.3892 48.7721C43.939 47.387 43.5642 47.5922 43.0731 47.8717L40.1224 49.4564C39.6495 48.2947 39.203 47.2091 38.7609 46.1163C39.7675 45.3902 40.7205 44.7095 41.6699 44.017C42.0144 43.8138 42.2761 43.4955 42.409 43.1183C42.5418 42.741 42.5372 42.329 42.396 41.9548C42.2481 41.3984 42.1083 40.8384 41.9495 40.2866C41.7907 39.7347 41.4503 39.575 40.9284 39.9081C40.2132 40.3619 39.5097 40.8157 38.81 41.2886C37.5728 42.1245 36.3394 42.9605 35.114 43.8118C34.804 44.0148 34.5647 44.309 34.4291 44.6539C34.2935 44.9987 34.2683 45.3772 34.3571 45.7369C34.5603 46.643 34.8794 47.5191 35.3065 48.3437C36.1161 50.159 41.6845 62.1398 42.3162 63.249C42.9479 64.3581 43.2919 64.4216 43.6096 64.172C44.7441 63.2526 45.9213 62.3486 47.0586 61.4182C47.5689 61.0589 47.9315 60.5267 48.0792 59.9203C48.2269 59.3139 48.1497 58.6745 47.8619 58.1208Z" fill="white"/>
<path fill-rule="evenodd" clip-rule="evenodd" d="M60.469 51.4697C60.4082 51.3635 60.3437 51.2618 60.2802 51.1556C59.2736 49.6008 58.2834 48.0343 57.2541 46.4876C56.2249 44.941 55.1811 43.4616 54.1636 41.9104C53.5355 40.961 52.9683 39.9735 52.3329 39.0314C51.6068 37.9604 50.8426 36.9093 50.0638 35.8646C49.8401 35.5671 49.5865 35.2934 49.3068 35.0477C49.2282 34.9386 49.1275 34.8471 49.0112 34.7794C48.895 34.7116 48.7658 34.669 48.6321 34.6544C48.4983 34.6397 48.363 34.6534 48.2348 34.6944C48.1067 34.7354 47.9886 34.8029 47.8882 34.8925C46.9996 35.4562 46.1328 36.0543 45.2742 36.6633C45.0538 36.8141 44.8792 37.0228 44.7697 37.2663C44.6602 37.5099 44.6199 37.7789 44.6534 38.0439C44.6915 38.3007 44.7105 38.5658 44.7704 38.8235C45.0918 40.204 45.4285 41.5809 45.7543 42.9624C46.2799 45.2315 46.7909 47.5006 47.3318 49.7697C47.6949 51.2827 48.0888 52.7957 48.4664 54.3079C48.7804 55.4878 49.1244 56.6677 49.4766 57.8413C49.6735 58.4957 50.1201 58.5338 50.6111 58.2198C51.4852 57.7088 52.3356 57.1452 53.1952 56.6078C53.3664 56.5142 53.5018 56.3666 53.5805 56.188C53.6591 56.0094 53.6765 55.8098 53.6299 55.6203C53.5918 55.397 53.5128 55.1819 53.4557 54.9623C53.3349 54.4703 53.2024 53.9784 53.0999 53.4828C53.0598 53.3354 53.0731 53.1785 53.1376 53.04C53.202 52.9014 53.3134 52.7901 53.452 52.7259C54.012 52.4381 54.5866 52.1658 55.1466 51.8972C55.2937 51.8172 55.4665 51.7986 55.6272 51.8454C55.788 51.8921 55.9239 52.0004 56.0052 52.1468C56.4255 52.6614 56.902 53.1261 57.3485 53.6181C57.4423 53.7444 57.5814 53.8294 57.7366 53.8555C57.8917 53.8815 58.0509 53.8466 58.1808 53.7578C58.7408 53.4783 59.3154 53.2514 59.9054 53.0009C60.813 52.6551 60.9383 52.2829 60.469 51.4697ZM52.0597 49.147C51.6993 48.5653 51.4431 47.9252 51.3027 47.2555C50.996 45.9658 51.2047 45.3377 51.477 45.6553C52.2247 46.4913 52.8605 47.421 53.3685 48.4209L52.0597 49.147Z" fill="white"/>
<path fill-rule="evenodd" clip-rule="evenodd" d="M41.6037 32.282C40.6555 30.4231 39.7062 28.567 38.7555 26.7136C37.8298 24.908 36.8991 23.1048 35.9636 21.3041C35.0787 19.5905 34.1856 17.8805 33.3152 16.1596C32.668 14.8771 32.0671 13.5755 31.4236 12.2976C31.0451 11.5406 30.6068 10.8263 30.1865 10.1038C29.6265 9.14714 29.0783 8.18595 28.4729 7.26288C28.3311 7.01718 28.1422 6.80188 27.917 6.6293C27.6919 6.45672 27.4349 6.33025 27.1608 6.25715C26.8867 6.18405 26.6009 6.16575 26.3197 6.2033C26.0385 6.24084 25.7675 6.3335 25.5222 6.47596C24.9194 6.7588 24.3379 7.08489 23.7822 7.45167C23.4408 7.65738 23.1532 7.9414 22.9433 8.28026C22.7334 8.61911 22.6072 9.00307 22.575 9.40037C22.3808 11.3548 22.2029 13.3144 22.0413 15.2792C21.9052 16.9401 21.8072 18.6084 21.6629 20.2712C21.504 22.4423 21.3261 24.6142 21.1782 26.7853C21.0756 28.2984 20.3613 37.2232 20.3613 40.7031C20.3613 44.183 21.0502 44.2138 23.9919 43.8163C26.9335 43.4187 27.6996 42.7761 27.6497 41.9021C27.5589 40.9264 27.4908 39.9461 27.3474 38.9777C27.0806 37.6558 26.9589 36.3087 26.9844 34.9604C26.9691 34.509 27.0818 34.0624 27.3093 33.6722C27.5369 33.282 27.8701 32.964 28.2705 32.7549C28.8759 32.4481 29.4922 32.1567 30.113 31.889C32.1597 31.0794 32.1443 31.0984 32.1443 31.0984C32.9013 30.8525 33.5856 31.0458 34.3381 32.8229C35.0905 34.6001 35.3065 35.1828 35.3065 35.1828C35.5788 35.8036 35.8774 36.4236 36.2142 37.0135C36.6798 37.8985 37.8107 37.982 38.7791 37.2704C38.7791 37.2704 40.5191 36.0224 41.4276 35.2237C42.3362 34.4249 42.1828 33.5872 41.6037 32.282ZM29.9596 25.1661C29.3812 25.4085 28.7886 25.6158 28.1852 25.7869C26.9145 26.1881 26.8836 25.4084 26.8836 24.4854V21.7425C26.8836 18.7473 27.2621 18.3679 27.6097 18.2508C27.9573 18.1337 28.2188 18.2998 28.5745 18.9088C29.3582 20.3392 30.0348 21.8258 30.5986 23.3563C31.0987 24.6596 30.5124 24.9356 29.9596 25.1661Z" fill="white"/>
<path fill-rule="evenodd" clip-rule="evenodd" d="M20.4456 18.286C20.4306 17.1414 20.1384 16.0174 19.5942 15.0103C19.4126 14.6722 19.1596 14.3776 18.8528 14.1469C18.546 13.9162 18.1927 13.755 17.8174 13.6743C17.4422 13.5937 17.0538 13.5956 16.6794 13.6799C16.3049 13.7642 15.9532 13.9289 15.6487 14.1626C14.5922 14.9997 13.6145 15.9318 12.7279 16.9472C11.7105 18.0818 10.8101 19.357 9.8979 20.5978C8.94922 21.8114 8.06516 23.0741 7.2494 24.3808C6.44394 25.8405 5.7168 27.342 5.07107 28.8791C4.1371 30.9521 3.25578 33.0406 2.38899 35.1554C2.06574 35.9377 1.93591 36.7865 2.0105 37.6296C2.00729 37.9918 2.12278 38.345 2.3393 38.6353C2.55583 38.9256 2.86147 39.1369 3.20949 39.2371C4.00005 39.5094 4.75248 39.8951 5.52126 40.2355C6.03943 40.4897 6.5726 40.7122 7.11779 40.9017C7.37497 41.0076 7.65376 41.0506 7.9309 41.0269C8.20804 41.0032 8.47549 40.9136 8.71096 40.7655C8.94642 40.6175 9.14307 40.4152 9.28449 40.1757C9.42592 39.9362 9.50802 39.6663 9.52395 39.3887C9.60967 38.7783 9.62733 38.1604 9.57659 37.5461C9.47989 36.1428 9.5255 34.7333 9.71274 33.3392C9.80781 32.4363 10.0414 31.5534 10.4053 30.7216C10.7229 30.865 10.9725 30.9939 11.2339 31.1001C13.4205 31.8906 16.7833 30.9975 18.0059 28.6258C18.3872 27.9495 18.7308 27.2526 19.0351 26.5383C20.0888 23.9203 20.5701 21.1072 20.4465 18.2878L20.4456 18.286ZM16.0608 23.4723C14.5477 25.7795 13.091 25.175 12.521 24.6068C12.8873 23.8063 13.3026 23.0291 13.7644 22.2796C14.6076 20.8837 15.4254 19.8127 15.8865 20.0777C16.8513 20.8083 17.0483 22.0191 16.0608 23.4723Z" fill="white"/>
</svg>
