<svg width="351" height="49" viewBox="0 0 351 49" fill="none" xmlns="http://www.w3.org/2000/svg">
<g clip-path="url(#clip0_1566_1227)">
<g clip-path="url(#clip1_1566_1227)">
<path d="M231.25 29.1667C231.25 29.581 231.586 29.9167 232 29.9167C232.414 29.9167 232.75 29.581 232.75 29.1667H231.25ZM244.601 17.399L245.132 16.8687V16.8687L244.601 17.399ZM240.502 30.8206L241.233 30.6551L240.502 30.8206ZM228.811 30.8206L228.079 30.9861L228.811 30.8206ZM228.829 29.4797L229.414 29.9487L228.829 29.4797ZM237 17.4167H240.333V15.9167H237V17.4167ZM244.583 21.6667V30.0001H246.083V21.6667H244.583ZM232.75 29.1667V21.6667H231.25V29.1667H232.75ZM237 15.9167C235.843 15.9167 234.899 15.9152 234.157 16.015C233.393 16.1177 232.731 16.34 232.202 16.8687L233.263 17.9293C233.466 17.7258 233.759 17.5819 234.357 17.5016C234.976 17.4183 235.8 17.4167 237 17.4167V15.9167ZM232.75 21.6667C232.75 20.467 232.752 19.6427 232.835 19.0235C232.915 18.4259 233.059 18.1329 233.263 17.9293L232.202 16.8687C231.673 17.3973 231.451 18.0597 231.348 18.8236C231.248 19.566 231.25 20.5094 231.25 21.6667H232.75ZM240.333 17.4167C241.533 17.4167 242.357 17.4183 242.977 17.5016C243.574 17.5819 243.867 17.7258 244.071 17.9293L245.132 16.8687C244.603 16.34 243.94 16.1177 243.177 16.015C242.434 15.9152 241.491 15.9167 240.333 15.9167V17.4167ZM246.083 21.6667C246.083 20.5094 246.085 19.566 245.985 18.8236C245.882 18.0597 245.66 17.3973 245.132 16.8687L244.071 17.9293C244.274 18.1329 244.418 18.4259 244.499 19.0235C244.582 19.6427 244.583 20.467 244.583 21.6667H246.083ZM244.583 30.0001C244.583 30.8515 244.427 31.5163 244.145 31.9457C243.896 32.3266 243.511 32.5834 242.828 32.5834V34.0834C243.99 34.0834 244.858 33.5941 245.4 32.7685C245.909 31.9915 246.083 30.9896 246.083 30.0001H244.583ZM242.828 32.5834C242.431 32.5834 242.127 32.4187 241.866 32.1022C241.587 31.7644 241.37 31.2602 241.233 30.6551L239.77 30.9861C239.937 31.7205 240.227 32.4727 240.709 33.0564C241.207 33.6614 241.914 34.0834 242.828 34.0834V32.5834ZM231.137 32.5834C230.74 32.5834 230.436 32.4187 230.175 32.1022C229.896 31.7644 229.679 31.2602 229.542 30.6551L228.079 30.9861C228.245 31.7205 228.536 32.4727 229.017 33.0564C229.516 33.6614 230.223 34.0834 231.137 34.0834V32.5834ZM231.137 34.0834H242.828V32.5834H231.137V34.0834ZM230.302 29.9167H238.653V28.4167H230.302V29.9167ZM229.542 30.6551C229.502 30.4799 229.472 30.3444 229.45 30.227C229.428 30.1098 229.419 30.035 229.417 29.9842C229.415 29.9368 229.421 29.9273 229.418 29.9368C229.414 29.9502 229.408 29.9564 229.414 29.9487L228.243 29.0108C227.984 29.3343 227.906 29.6847 227.918 30.037C227.928 30.3343 228.008 30.6713 228.079 30.9861L229.542 30.6551ZM230.302 28.4167C229.92 28.4167 229.541 28.4143 229.231 28.4661C228.879 28.5245 228.52 28.6654 228.243 29.0108L229.414 29.9487C229.414 29.9485 229.413 29.9495 229.412 29.9513C229.41 29.9531 229.408 29.9553 229.405 29.9576C229.398 29.9627 229.393 29.9657 229.391 29.9667C229.389 29.968 229.409 29.957 229.477 29.9457C229.636 29.9192 229.868 29.9167 230.302 29.9167V28.4167ZM241.233 30.6551C241.14 30.2401 241.058 29.8776 240.968 29.5993C240.881 29.3331 240.745 28.9983 240.449 28.7629L239.514 29.9355C239.447 29.8824 239.473 29.8537 239.541 30.0627C239.605 30.2598 239.67 30.5417 239.77 30.9861L241.233 30.6551ZM238.653 29.9167C239.036 29.9167 239.264 29.9178 239.426 29.9352C239.581 29.9519 239.563 29.9743 239.514 29.9355L240.449 28.7629C240.172 28.5416 239.856 28.4728 239.587 28.4439C239.325 28.4157 239.002 28.4167 238.653 28.4167V29.9167Z" fill="white"/>
<path d="M235.75 20.8335H241.583" stroke="white" stroke-width="1.5" stroke-linecap="round"/>
<path d="M235.75 24.1667H238.667" stroke="white" stroke-width="1.5" stroke-linecap="round"/>
</g>
<g clip-path="url(#clip2_1566_1227)">
<circle cx="303" cy="24.0001" r="8.33333" stroke="white" stroke-width="1.5"/>
<path d="M301.333 21.5002C301.333 20.5797 302.079 19.8335 303 19.8335C303.92 19.8335 304.666 20.5797 304.666 21.5002C304.666 21.832 304.569 22.1411 304.402 22.4008C303.904 23.1749 303 23.913 303 24.8335V25.2502" stroke="white" stroke-width="1.5" stroke-linecap="round"/>
<path d="M302.993 28.1667H303" stroke="white" stroke-width="2" stroke-linecap="round" stroke-linejoin="round"/>
</g>
<path fill-rule="evenodd" clip-rule="evenodd" d="M334 24C330.134 24 327.103 20.7998 325.992 17.0966C323.027 7.20671 313.855 0 303 0C292.145 0 282.973 7.20671 280.008 17.0966C278.897 20.7997 275.866 24 272 24H267.699C263.944 24 260.962 20.9731 259.775 17.4109C256.6 7.87537 247.603 1 237 1C226.397 1 217.4 7.87537 214.225 17.411C213.038 20.9731 210.056 24 206.301 24H198.699C194.944 24 191.962 20.9731 190.775 17.4109C187.6 7.87537 178.603 1 168 1C157.397 1 148.4 7.87537 145.225 17.411C144.038 20.9731 141.056 24 137.301 24H128.699C124.944 24 121.962 20.9731 120.775 17.4109C117.6 7.87537 108.603 1 98 1C87.6541 1 78.8373 7.54632 75.4656 16.7227C74.2092 20.1421 71.2787 23 67.6359 23H54.3641C50.7213 23 47.7908 20.1421 46.5344 16.7227C43.1627 7.54632 34.3459 1 24 1C10.7452 1 0 11.7452 0 25C0 38.2548 10.7452 49 24 49C34.0843 49 42.716 42.7805 46.2683 33.9681C47.5885 30.6931 50.4646 28 53.9957 28H68.0044C71.5354 28 74.4115 30.6931 75.7317 33.9681C79.284 42.7805 87.9157 49 98 49C107.818 49 116.258 43.1051 119.976 34.6617C121.354 31.5325 124.173 29 127.592 29H138.408C141.827 29 144.646 31.5325 146.024 34.6617C149.742 43.1051 158.182 49 168 49C177.818 49 186.258 43.1051 189.976 34.6617C191.354 31.5325 194.173 29 197.592 29H207.408C210.827 29 213.646 31.5325 215.024 34.6617C218.742 43.1051 227.182 49 237 49C246.818 49 255.258 43.1051 258.976 34.6617C260.354 31.5325 263.173 29 266.592 29H273.85C277.156 29 279.915 31.3759 281.344 34.358C285.211 42.4274 293.455 48 303 48C312.545 48 320.789 42.4274 324.656 34.358C326.085 31.3759 328.844 29 332.15 29H341.85C345.156 29 347.915 31.3759 349.344 34.358C353.211 42.4274 361.455 48 371 48C384.255 48 395 37.2548 395 24C395 10.7452 384.255 0 371 0C360.145 0 350.973 7.20671 348.008 17.0966C346.897 20.7998 343.866 24 340 24H334Z" fill="url(#paint0_linear_1566_1227)"/>
<g clip-path="url(#clip3_1566_1227)">
<path d="M231.25 29.1667C231.25 29.581 231.586 29.9167 232 29.9167C232.414 29.9167 232.75 29.581 232.75 29.1667H231.25ZM244.601 17.399L245.132 16.8687V16.8687L244.601 17.399ZM240.502 30.8206L241.233 30.6551L240.502 30.8206ZM228.811 30.8206L228.079 30.9861L228.811 30.8206ZM228.829 29.4797L229.414 29.9487L228.829 29.4797ZM237 17.4167H240.333V15.9167H237V17.4167ZM244.583 21.6667V30.0001H246.083V21.6667H244.583ZM232.75 29.1667V21.6667H231.25V29.1667H232.75ZM237 15.9167C235.843 15.9167 234.899 15.9152 234.157 16.015C233.393 16.1177 232.731 16.34 232.202 16.8687L233.263 17.9293C233.466 17.7258 233.759 17.5819 234.357 17.5016C234.976 17.4183 235.8 17.4167 237 17.4167V15.9167ZM232.75 21.6667C232.75 20.467 232.752 19.6427 232.835 19.0235C232.915 18.4259 233.059 18.1329 233.263 17.9293L232.202 16.8687C231.673 17.3973 231.451 18.0597 231.348 18.8236C231.248 19.566 231.25 20.5094 231.25 21.6667H232.75ZM240.333 17.4167C241.533 17.4167 242.357 17.4183 242.977 17.5016C243.574 17.5819 243.867 17.7258 244.071 17.9293L245.132 16.8687C244.603 16.34 243.94 16.1177 243.177 16.015C242.434 15.9152 241.491 15.9167 240.333 15.9167V17.4167ZM246.083 21.6667C246.083 20.5094 246.085 19.566 245.985 18.8236C245.882 18.0597 245.66 17.3973 245.132 16.8687L244.071 17.9293C244.274 18.1329 244.418 18.4259 244.499 19.0235C244.582 19.6427 244.583 20.467 244.583 21.6667H246.083ZM244.583 30.0001C244.583 30.8515 244.427 31.5163 244.145 31.9457C243.896 32.3266 243.511 32.5834 242.828 32.5834V34.0834C243.99 34.0834 244.858 33.5941 245.4 32.7685C245.909 31.9915 246.083 30.9896 246.083 30.0001H244.583ZM242.828 32.5834C242.431 32.5834 242.127 32.4187 241.866 32.1022C241.587 31.7644 241.37 31.2602 241.233 30.6551L239.77 30.9861C239.937 31.7205 240.227 32.4727 240.709 33.0564C241.207 33.6614 241.914 34.0834 242.828 34.0834V32.5834ZM231.137 32.5834C230.74 32.5834 230.436 32.4187 230.175 32.1022C229.896 31.7644 229.679 31.2602 229.542 30.6551L228.079 30.9861C228.245 31.7205 228.536 32.4727 229.017 33.0564C229.516 33.6614 230.223 34.0834 231.137 34.0834V32.5834ZM231.137 34.0834H242.828V32.5834H231.137V34.0834ZM230.302 29.9167H238.653V28.4167H230.302V29.9167ZM229.542 30.6551C229.502 30.4799 229.472 30.3444 229.45 30.227C229.428 30.1098 229.419 30.035 229.417 29.9842C229.415 29.9368 229.421 29.9273 229.418 29.9368C229.414 29.9502 229.408 29.9564 229.414 29.9487L228.243 29.0108C227.984 29.3343 227.906 29.6847 227.918 30.037C227.928 30.3343 228.008 30.6713 228.079 30.9861L229.542 30.6551ZM230.302 28.4167C229.92 28.4167 229.541 28.4143 229.231 28.4661C228.879 28.5245 228.52 28.6654 228.243 29.0108L229.414 29.9487C229.414 29.9485 229.413 29.9495 229.412 29.9513C229.41 29.9531 229.408 29.9553 229.405 29.9576C229.398 29.9627 229.393 29.9657 229.391 29.9667C229.389 29.968 229.409 29.957 229.477 29.9457C229.636 29.9192 229.868 29.9167 230.302 29.9167V28.4167ZM241.233 30.6551C241.14 30.2401 241.058 29.8776 240.968 29.5993C240.881 29.3331 240.745 28.9983 240.449 28.7629L239.514 29.9355C239.447 29.8824 239.473 29.8537 239.541 30.0627C239.605 30.2598 239.67 30.5417 239.77 30.9861L241.233 30.6551ZM238.653 29.9167C239.036 29.9167 239.264 29.9178 239.426 29.9352C239.581 29.9519 239.563 29.9743 239.514 29.9355L240.449 28.7629C240.172 28.5416 239.856 28.4728 239.587 28.4439C239.325 28.4157 239.002 28.4167 238.653 28.4167V29.9167Z" fill="white"/>
<path d="M235.75 20.8335H241.583" stroke="white" stroke-width="1.5" stroke-linecap="round"/>
<path d="M235.75 24.1667H238.667" stroke="white" stroke-width="1.5" stroke-linecap="round"/>
</g>
<path d="M19.4813 27.9014C18.3023 28.6034 15.2111 30.0368 17.0939 31.8306C18.0136 32.7068 19.0379 33.3334 20.3257 33.3334H27.6743C28.9621 33.3334 29.9864 32.7068 30.9061 31.8306C32.7889 30.0368 29.6977 28.6034 28.5187 27.9014C25.754 26.2552 22.246 26.2552 19.4813 27.9014Z" stroke="white" stroke-width="1.5" stroke-linecap="round" stroke-linejoin="round"/>
<path d="M27.75 20.4167C27.75 22.4878 26.0711 24.1667 24 24.1667C21.9289 24.1667 20.25 22.4878 20.25 20.4167C20.25 18.3457 21.9289 16.6667 24 16.6667C26.0711 16.6667 27.75 18.3457 27.75 20.4167Z" stroke="white" stroke-width="1.5"/>
<g clip-path="url(#clip4_1566_1227)">
<path d="M102.167 25.0002C102.167 27.3013 100.301 29.1668 98.0002 29.1668C95.699 29.1668 93.8335 27.3013 93.8335 25.0002C93.8335 22.699 95.699 20.8335 98.0002 20.8335" stroke="white" stroke-width="1.5" stroke-linecap="round"/>
<path d="M99.6667 16.8334C99.1282 16.7241 98.5709 16.6667 98.0001 16.6667C93.3977 16.6667 89.6667 20.3977 89.6667 25.0001C89.6667 29.6025 93.3977 33.3334 98.0001 33.3334C102.602 33.3334 106.333 29.6025 106.333 25.0001C106.333 24.4293 106.276 23.8719 106.167 23.3334" stroke="white" stroke-width="1.5" stroke-linecap="round"/>
<path d="M97.4697 24.4698C97.1768 24.7626 97.1768 25.2375 97.4697 25.5304C97.7626 25.8233 98.2374 25.8233 98.5303 25.5304L97.4697 24.4698ZM104.409 18.591L103.683 18.7804C103.752 19.043 103.957 19.2482 104.22 19.3167L104.409 18.591ZM103.979 16.9418L103.253 17.1312V17.1312L103.979 16.9418ZM103.248 16.8251L103.779 17.3555L103.248 16.8251ZM102.291 17.783L101.76 17.2526L102.291 17.783ZM101.565 20.1262L100.839 20.3155L100.839 20.3155L101.565 20.1262ZM106.058 19.0213L105.869 19.747L106.058 19.0213ZM106.175 19.7517L105.645 19.2214V19.2214L106.175 19.7517ZM105.217 20.7095L105.747 21.2399H105.747L105.217 20.7095ZM102.874 21.435L102.685 22.1607H102.685L102.874 21.435ZM101.306 20.6338L97.4697 24.4698L98.5303 25.5304L102.366 21.6945L101.306 20.6338ZM105.135 18.4017L104.704 16.7525L103.253 17.1312L103.683 18.7804L105.135 18.4017ZM102.718 16.2948L101.76 17.2526L102.821 18.3133L103.779 17.3555L102.718 16.2948ZM100.839 20.3155L101.11 21.3535L102.562 20.9748L102.291 19.9368L100.839 20.3155ZM104.22 19.3167L105.869 19.747L106.248 18.2956L104.598 17.8653L104.22 19.3167ZM105.645 19.2214L104.687 20.1792L105.747 21.2399L106.705 20.282L105.645 19.2214ZM103.063 20.7093L102.025 20.4384L101.647 21.8898L102.685 22.1607L103.063 20.7093ZM104.687 20.1792C104.196 20.6702 103.554 20.8373 103.063 20.7093L102.685 22.1607C103.766 22.4429 104.939 22.0483 105.747 21.2399L104.687 20.1792ZM105.869 19.747C105.802 19.7296 105.732 19.6891 105.676 19.6246C105.622 19.5628 105.596 19.4955 105.587 19.4394C105.57 19.3281 105.613 19.2532 105.645 19.2214L106.705 20.282C106.992 19.9952 107.131 19.5954 107.069 19.2028C107.004 18.7959 106.716 18.4179 106.248 18.2956L105.869 19.747ZM101.76 17.2526C100.952 18.0611 100.557 19.2336 100.839 20.3155L102.291 19.9368C102.163 19.446 102.33 18.8043 102.821 18.3133L101.76 17.2526ZM104.704 16.7525C104.582 16.2839 104.204 15.9965 103.797 15.9315C103.405 15.8688 103.005 16.008 102.718 16.2948L103.779 17.3555C103.747 17.3872 103.672 17.4305 103.561 17.4127C103.505 17.4037 103.437 17.3779 103.375 17.3244C103.311 17.2686 103.27 17.1978 103.253 17.1312L104.704 16.7525Z" fill="white"/>
</g>
<path d="M160.917 23.3334C160.917 20.1907 160.917 18.6194 161.954 17.6431C162.991 16.6667 164.661 16.6667 168 16.6667H168.644C171.362 16.6667 172.721 16.6667 173.664 17.3316C173.935 17.5221 174.175 17.748 174.377 18.0025C175.083 18.8906 175.083 20.1695 175.083 22.7274V24.8486C175.083 27.3179 175.083 28.5525 174.693 29.5386C174.064 31.1239 172.736 32.3743 171.051 32.9656C170.004 33.3334 168.692 33.3334 166.068 33.3334C164.569 33.3334 163.819 33.3334 163.221 33.1232C162.258 32.7854 161.499 32.0708 161.14 31.165C160.917 30.6015 160.917 29.896 160.917 28.4849V23.3334Z" stroke="white" stroke-width="1.5" stroke-linejoin="round"/>
<path d="M175.083 25C175.083 26.5341 173.84 27.7778 172.306 27.7778C171.751 27.7778 171.097 27.6806 170.557 27.8251C170.078 27.9535 169.704 28.3279 169.575 28.8072C169.431 29.3466 169.528 30.0007 169.528 30.5556C169.528 32.0897 168.284 33.3333 166.75 33.3333" stroke="white" stroke-width="1.5" stroke-linecap="round" stroke-linejoin="round"/>
<path d="M164.667 20.8335H170.5" stroke="white" stroke-width="1.5" stroke-linecap="round" stroke-linejoin="round"/>
<path d="M164.667 24.1667H167.167" stroke="white" stroke-width="1.5" stroke-linecap="round" stroke-linejoin="round"/>
</g>
<defs>
<linearGradient id="paint0_linear_1566_1227" x1="0" y1="0" x2="390.5" y2="0" gradientUnits="userSpaceOnUse">
<stop offset="0.286458" stop-color="#00B67A"/>
<stop offset="0.40625" stop-color="#4256C5"/>
<stop offset="0.489583" stop-color="#523FD7"/>
<stop offset="0.510417" stop-color="#F4F3FD" stop-opacity="0.0619576"/>
<stop offset="0.994792" stop-color="white" stop-opacity="0"/>
</linearGradient>
<clipPath id="clip0_1566_1227">
<rect width="351" height="49" fill="white"/>
</clipPath>
<clipPath id="clip1_1566_1227">
<rect width="20" height="20" fill="white" transform="translate(227 15)"/>
</clipPath>
<clipPath id="clip2_1566_1227">
<rect width="20" height="20" fill="white" transform="translate(293 14)"/>
</clipPath>
<clipPath id="clip3_1566_1227">
<rect width="20" height="20" fill="white" transform="translate(227 15)"/>
</clipPath>
<clipPath id="clip4_1566_1227">
<rect width="20" height="20" fill="white" transform="translate(88 15)"/>
</clipPath>
</defs>
</svg>
